<svg width="320" height="148" viewBox="0 0 320 148" fill="none" xmlns="http://www.w3.org/2000/svg"><path d="M54.68 59.61a4.04 4.04 0 100-8.08 4.04 4.04 0 000 8.08z" fill="#00AD5E"/><path d="M68.88 49.54a2.32 2.32 0 100-4.64 2.32 2.32 0 000 4.64z" fill="#008DD0"/><path d="M71.67 32.83a2.32 2.32 0 100-4.64 2.32 2.32 0 000 4.64z" fill="#00AD5E"/><path d="M57.74 38.4a2.32 2.32 0 100-4.64 2.32 2.32 0 000 4.64z" fill="#F9E830"/><path d="M41.03 46.75a2.32 2.32 0 100-4.64 2.32 2.32 0 000 4.64z" fill="#FEAA39"/><path d="M46.6 30.04a2.32 2.32 0 100-4.64 2.32 2.32 0 000 4.64z" fill="#E84C43"/><path d="M1.96 42.05c.4.64.76 1.28 1.15 1.91.43.61.8 1.23 1.26 1.81.86 1.18 1.77 2.31 2.77 3.36 1.97 2.11 4.12 4.02 6.39 5.78 4.55 3.53 9.5 6.48 14.55 9.61 5.03 3.14 10.16 6.52 14.75 10.9 2.29 2.18 4.41 4.65 6.23 7.38 1.81 2.75 3.21 5.78 4.25 8.86 1 3.1 1.64 6.26 1.99 9.42.33 3.16.39 6.32.22 9.42-.34 6.21-1.45 12.19-2.72 17.99-2.55 11.57-3.21 7.21-6.78 18.6.34-11.93-.67-7.86.68-19.61.66-5.85 1.34-11.59 1.36-17.21.01-2.81-.1-5.57-.48-8.28-.34-2.71-.91-5.36-1.75-7.88-.82-2.53-1.91-4.91-3.31-7.13-1.38-2.24-3.09-4.32-4.98-6.31-3.78-3.99-8.34-7.51-13-11.1s-9.49-7.35-13.64-11.85c-2.06-2.25-3.98-4.67-5.52-7.31-.4-.65-.75-1.33-1.1-2.01-.36-.67-.65-1.37-.96-2.06-.3-.69-.52-1.43-.78-2.13-.23-.71-.41-1.45-.6-2.17l.02.01z" fill="#45B759"/><path d="M65.72 83.75c.09-1.21.58-2.41 1.3-3.45.73-1.03 1.68-1.9 2.68-2.65 2.02-1.5 4.35-2.5 6.52-3.5 4.37-1.98 8.62-4.13 12.54-6.67 3.88-2.58 7.48-5.53 10.14-9.14 1.33-1.79 2.48-3.71 3.33-5.74.85-2.03 1.42-4.19 1.74-6.39.68-4.4.3-8.99-.89-13.35-.59-2.19-1.39-4.33-2.39-6.37-1.01-2.03-2.21-4-3.57-5.86-2.71-3.75-6.1-7.03-9.82-9.95-3.73-2.93-7.87-5.37-12.18-7.6 4.69 1.25 9.23 3.18 13.48 5.69 4.22 2.54 8.17 5.7 11.43 9.56 3.27 3.82 5.88 8.37 7.35 13.28.76 2.45 1.25 4.98 1.5 7.55.21 2.57.14 5.18-.24 7.75-.4 2.57-1.08 5.11-2.13 7.52a30.67 30.67 0 01-4.08 6.65 33.184 33.184 0 01-5.47 5.39c-1.99 1.58-4.11 2.95-6.28 4.17-4.38 2.39-8.97 4.2-13.62 5.65-2.33.71-4.57 1.38-6.65 2.45-1.03.53-2.01 1.18-2.83 2-.83.81-1.48 1.83-1.84 2.99l-.02.02z" fill="#00AD5E"/><path d="M83.3 79.05c6.89-2.67 12.9-6.76 17.73-11.88 4.82-5.1 8.46-11.24 10.35-17.86 1.89-6.62 2.07-13.75.68-20.63-1.38-6.9-4.32-13.55-8.73-19.47 5.86 4.56 10.12 11.26 12.33 18.56 2.21 7.31 2.41 15.35.25 22.84-2.15 7.49-6.58 14.2-12.33 19.23-5.75 5.02-12.91 8.44-20.29 9.21h.01z" fill="#008DD0"/><path d="M91.57 60.51c2.06-3.64 3.43-7.4 4.08-11.24.66-3.83.6-7.72-.23-11.41-.84-3.69-2.45-7.22-4.69-10.4-2.24-3.19-5.09-6-8.5-8.41 4.1.91 7.91 3.29 10.89 6.45 2.98 3.17 5.16 7.17 6.13 11.5.98 4.33.72 8.88-.62 13.02-1.34 4.13-3.76 7.91-7.07 10.49h.01z" fill="#F9EE43"/><path style="mix-blend-mode:multiply" d="M46.02 147.09c3.57-11.39 4.23-7.03 6.78-18.6.96-4.41 1.83-8.92 2.35-13.55-1.59-25.14-21.93-38.41-21.93-38.41 1.53 1.34 2.99 2.71 4.34 4.14 1.88 2 3.59 4.07 4.97 6.31 1.39 2.22 2.48 4.6 3.31 7.13a41.9 41.9 0 011.75 7.88c.38 2.71.49 5.47.48 8.28-.02 5.61-.7 11.36-1.36 17.21-1.35 11.75-.34 7.68-.68 19.61h-.01z" fill="url(#paint0_linear_1_81)"/><path d="M55.87 89.81c-1.54-2.03-2.09-4.85-1.8-7.55.3-2.74 1.44-5.33 2.95-7.57 3.07-4.47 7.37-7.65 11.63-10.21 4.29-2.58 8.59-4.56 12.57-6.93 4-2.36 7.73-5 10.93-8.88-.37 2.5-1.45 4.92-2.87 7.08-1.43 2.16-3.21 4.09-5.13 5.78-3.86 3.41-8.22 5.91-12.26 8.34-4.05 2.42-7.9 4.84-11.03 7.92-1.55 1.53-2.88 3.25-3.8 5.23-.92 2-1.43 4.27-1.18 6.78l-.01.01z" fill="#F45852"/><path style="mix-blend-mode:multiply" d="M68.65 64.48c-4.26 2.56-8.55 5.74-11.63 10.21-1.51 2.23-2.65 4.83-2.95 7.57-.29 2.69.25 5.52 1.8 7.55-.24-2.51.27-4.79 1.18-6.78.21-.45.44-.88.69-1.3 0 0 2.15-10.07 14.1-19.07-1.06.58-2.13 1.19-3.19 1.83v-.01z" fill="url(#paint1_linear_1_81)"/><path d="M50.5 83.49c1.37-1.92 1.8-4.54 1.45-7.03-.35-2.52-1.48-4.89-2.93-6.92C46.06 65.49 42 62.67 38 60.42c-4.03-2.26-8.07-3.99-11.81-6.06-3.76-2.08-7.28-4.41-10.34-7.91.41 2.3 1.47 4.51 2.85 6.47 1.38 1.96 3.08 3.69 4.9 5.21 3.66 3.05 7.76 5.24 11.56 7.37 3.81 2.13 7.44 4.26 10.41 7.02 1.47 1.37 2.75 2.93 3.66 4.73.9 1.82 1.43 3.91 1.28 6.24h-.01z" fill="#008DD0"/><path style="mix-blend-mode:multiply" d="M38.01 60.43c4 2.25 8.06 5.08 11.02 9.12 1.45 2.02 2.58 4.39 2.93 6.92.34 2.48-.08 5.11-1.45 7.03.16-2.33-.38-4.42-1.28-6.24-.21-.41-.43-.8-.68-1.19 0 0-2.26-9.25-13.55-17.24 1 .51 2 1.04 3 1.6h.01z" fill="url(#paint2_linear_1_81)"/><path d="M80.51 20.32a2.32 2.32 0 100-4.64 2.32 2.32 0 000 4.64z" fill="#F9EE43"/><path d="M74.12 4.64a2.32 2.32 0 100-4.64 2.32 2.32 0 000 4.64z" fill="#00AD5E"/><path d="M102.57 10.06a2.32 2.32 0 100-4.64 2.32 2.32 0 000 4.64z" fill="#008DD0"/><path d="M2.32 42.57a2.32 2.32 0 100-4.64 2.32 2.32 0 000 4.64z" fill="#00AD5E"/><path d="M91.599 94.232l2.08 5.443-.35.056s-.544-.6-1.647-1.745a11.869 11.869 0 00-3.754-2.652c-1.41-.628-3-.935-4.787-.935-2.987 0-5.346.852-7.09 2.568-1.745 1.717-2.624 3.769-2.624 6.169 0 1.605.405 3.001 1.228 4.187.823 1.186 2.526 2.303 5.136 3.336 4.48 1.507 7.537 2.652 9.198 3.405 1.646.754 3.238 2.052 4.773 3.866 1.535 1.815 2.303 4.145 2.303 6.979 0 1.186-.14 2.316-.419 3.391a11.457 11.457 0 01-1.34 3.112 14.157 14.157 0 01-2.205 2.722c-.865.823-1.73 1.438-2.624 1.87-.893.433-2.289.74-4.2.963-1.913.224-3.183.321-3.797.321H69.84v-12.672h.447c.041 4.2 1.032 7.131 2.958 8.792 1.94 1.661 4.941 2.485 9.03 2.485 3.713 0 6.532-.88 8.458-2.638 1.926-1.759 2.89-3.866 2.89-6.337 0-1.507-.336-2.777-1.006-3.838-.67-1.06-1.605-1.982-2.819-2.791-1.2-.796-3.49-1.773-6.839-2.931-3.335-1.172-5.68-2.191-7.034-3.07-1.354-.88-2.484-2.206-3.391-3.964-.908-1.759-1.368-3.559-1.368-5.401 0-3.378 1.158-6.211 3.475-8.486 2.317-2.275 5.36-3.433 9.142-3.433 1.465 0 3.042.167 4.745.502 1.703.335 2.652.558 2.847.656a.493.493 0 00.237.056l-.013.014zm31.193 22.986h-12.799l-6.601 16.469c-.461 1.187-.684 1.912-.684 2.192 0 .656.489.977 1.452.977v.446h-6.49v-.446c.865 0 1.59-.21 2.19-.642.587-.419 1.243-1.522 1.955-3.308l15.813-39.889h.781l15.562 38.535c0 .195.405 1.13 1.2 2.805.796 1.675 2.01 2.499 3.643 2.499v.446h-10.188v-.446c.935 0 1.395-.363 1.395-1.103 0-.489-.223-1.284-.683-2.373a.92.92 0 01-.21-.39c-.042-.196-.07-.294-.084-.294l-6.238-15.492-.014.014zm-12.38-1.214h11.794l-5.89-14.864-5.904 14.864zm30.886-21.884v-.447h27.607v5.123h-.447v-.21s-.056-.097-.056-.181c-.39-1.508-.949-2.415-1.66-2.75-.712-.335-1.801-.502-3.252-.502h-14.069v19.218h13.092c1.116 0 1.898-.083 2.303-.265.418-.181.655-.572.711-1.186h.447v4.173h-.447c0-1.005-.656-1.507-1.954-1.507h-14.166v17.39c0 1.633.252 2.693.754 3.168.502.474 1.368.712 2.596.712v.446h-11.459v-.446c1.34 0 2.192-.252 2.555-.768.362-.516.53-1.228.53-2.163v-35.87c0-1.465-.209-2.483-.628-3.056-.419-.586-1.228-.879-2.457-.879zm77.865 36.343l-1.982 6.839h-28.695V136.2c8.137-6.448 13.734-12.115 16.804-17 3.07-4.885 4.606-9.434 4.606-13.649 0-3.531-.88-6.267-2.652-8.179-1.773-1.912-3.95-2.875-6.56-2.875-2.372 0-4.619.795-6.741 2.373-2.121 1.577-3.754 3.461-4.899 5.624l-1.158-.586c2.01-3.28 4.187-5.597 6.532-6.95 2.344-1.354 4.996-2.024 7.955-2.024 3.894 0 6.992 1.172 9.309 3.517 2.317 2.345 3.475 5.15 3.475 8.43 0 3.042-1.214 6.434-3.656 10.188-2.443 3.741-6.49 8.29-12.157 13.622l-5.038 4.745h18.242c1.772 0 2.986-.167 3.642-.502.656-.335 1.438-1.159 2.373-2.457h.586l.014-.014zM237 137.986c-4.369 0-7.9-1.856-10.607-5.569-2.708-3.712-4.062-8.737-4.062-15.073 0-7.23 1.535-13.119 4.592-17.67 3.056-4.55 6.936-6.824 11.612-6.824 2.428 0 4.745.726 6.964 2.163 2.205 1.438 4.006 3.74 5.388 6.923 1.381 3.168 2.079 7.118 2.079 11.835 0 6.755-1.465 12.477-4.41 17.181C245.611 135.655 241.759 138 237 138v-.014zm2.009-1.605c2.289 0 4.397-1.424 6.323-4.257 1.926-2.833 2.889-7.174 2.889-13.021 0-7.411-1.047-13.371-3.126-17.907-2.08-4.536-4.955-6.797-8.64-6.797-2.582 0-4.801 1.452-6.629 4.369-1.842 2.917-2.75 7.327-2.75 13.231 0 7.034 1.089 12.854 3.252 17.459 2.178 4.606 5.067 6.923 8.681 6.923zm48.347-5.918l-1.982 6.839h-28.695V136.2c8.136-6.448 13.733-12.115 16.804-17 3.07-4.885 4.605-9.434 4.605-13.649 0-3.531-.879-6.267-2.651-8.179-1.773-1.912-3.95-2.875-6.56-2.875-2.373 0-4.62.795-6.741 2.373-2.122 1.577-3.755 3.461-4.899 5.624l-1.158-.586c2.009-3.28 4.187-5.597 6.531-6.95 2.345-1.354 4.997-2.024 7.956-2.024 3.894 0 6.992 1.172 9.309 3.517 2.317 2.345 3.475 5.15 3.475 8.43 0 3.042-1.214 6.434-3.657 10.188-2.442 3.741-6.49 8.29-12.156 13.622l-5.038 4.745h18.241c1.773 0 2.987-.167 3.643-.502.656-.335 1.437-1.159 2.372-2.457h.587l.014-.014zm5.038-28.346l1.605-5.862c2.233-1.34 4.159-2.219 5.792-2.623a21.157 21.157 0 015.108-.615c4.201 0 7.23.824 9.072 2.457 1.842 1.633 2.763 3.559 2.763 5.778 0 2.219-.725 4.075-2.163 5.708-1.437 1.633-3.656 3.196-6.629 4.69v.111c3.377.433 6.001 1.829 7.857 4.159 1.871 2.345 2.806 5.067 2.806 8.165 0 4.006-1.508 7.313-4.508 9.909-3.001 2.596-6.476 3.894-10.426 3.894-2.708 0-5.094-.488-7.188-1.479-2.079-.991-4.173-2.387-6.266-4.201v-1.563a44.653 44.653 0 005.638 3.922c2.01 1.172 4.285 1.758 6.853 1.758 3.001 0 5.555-1.005 7.676-3.001 2.108-2.009 3.168-4.633 3.168-7.899 0-3.015-1.005-5.541-3-7.551-2.01-2.009-4.76-3.028-8.277-3.028-.963 0-2.051.097-3.252.293v-1.186a.943.943 0 01.587-.21c4.745-1.284 7.941-2.819 9.602-4.619 1.661-1.801 2.484-3.964 2.484-6.518s-.754-4.634-2.247-6.155c-1.507-1.521-3.364-2.275-5.597-2.275-1.954 0-3.796.6-5.54 1.786-1.745 1.187-3.545 3.266-5.416 6.211l-.502-.056z" fill="#231300"/><defs><linearGradient id="paint0_linear_1_81" x1="42.38" y1="90.28" x2="46.93" y2="112.2" gradientUnits="userSpaceOnUse"><stop stop-color="#00AD5E"/><stop offset="1" stop-color="#00AD5E" stop-opacity="0"/></linearGradient><linearGradient id="paint1_linear_1_81" x1="67.03" y1="72.23" x2="57.99" y2="80.36" gradientUnits="userSpaceOnUse"><stop stop-color="#AE4C46"/><stop offset=".14" stop-color="#AF4C45" stop-opacity=".97"/><stop offset=".29" stop-color="#B34C45" stop-opacity=".9"/><stop offset=".45" stop-color="#BB4C45" stop-opacity=".77"/><stop offset=".61" stop-color="#C54C44" stop-opacity=".59"/><stop offset=".78" stop-color="#D34C44" stop-opacity=".36"/><stop offset=".95" stop-color="#E34C43" stop-opacity=".08"/><stop offset="1" stop-color="#E84C43" stop-opacity="0"/></linearGradient><linearGradient id="paint2_linear_1_81" x1="39.709" y1="67.549" x2="48.285" y2="74.821" gradientUnits="userSpaceOnUse"><stop stop-color="#AE4C46"/><stop offset=".14" stop-color="#AF4C45" stop-opacity=".97"/><stop offset=".29" stop-color="#B34C45" stop-opacity=".9"/><stop offset=".45" stop-color="#BB4C45" stop-opacity=".77"/><stop offset=".61" stop-color="#C54C44" stop-opacity=".59"/><stop offset=".78" stop-color="#D34C44" stop-opacity=".36"/><stop offset=".95" stop-color="#E34C43" stop-opacity=".08"/><stop offset="1" stop-color="#E84C43" stop-opacity="0"/></linearGradient></defs></svg>